<svg width="68" height="68" viewBox="0 0 68 68" fill="none" xmlns="http://www.w3.org/2000/svg">
<path d="M8.4 14.8C10.0974 14.8 11.7253 14.1257 12.9255 12.9255C14.1257 11.7253 14.8 10.0974 14.8 8.4C14.8 6.70261 14.1257 5.07475 12.9255 3.87452C11.7253 2.67428 10.0974 2 8.4 2C6.70261 2 5.07475 2.67428 3.87452 3.87452C2.67428 5.07475 2 6.70261 2 8.4C2 10.0974 2.67428 11.7253 3.87452 12.9255C5.07475 14.1257 6.70261 14.8 8.4 14.8ZM11.6 62.8C14.1461 62.8 16.5879 61.7886 18.3882 59.9882C20.1886 58.1879 21.2 55.7461 21.2 53.2C21.2 50.6539 20.1886 48.2121 18.3882 46.4118C16.5879 44.6114 14.1461 43.6 11.6 43.6C9.05392 43.6 6.61212 44.6114 4.81178 46.4118C3.01143 48.2121 2 50.6539 2 53.2C2 55.7461 3.01143 58.1879 4.81178 59.9882C6.61212 61.7886 9.05392 62.8 11.6 62.8ZM56.4 66C58.9461 66 61.3879 64.9886 63.1882 63.1882C64.9886 61.3879 66 58.9461 66 56.4C66 53.8539 64.9886 51.4121 63.1882 49.6118C61.3879 47.8114 58.9461 46.8 56.4 46.8C53.8539 46.8 51.4121 47.8114 49.6118 49.6118C47.8114 51.4121 46.8 53.8539 46.8 56.4C46.8 58.9461 47.8114 61.3879 49.6118 63.1882C51.4121 64.9886 53.8539 66 56.4 66ZM30.8 40.4C34.1948 40.4 37.4505 39.0514 39.851 36.651C42.2514 34.2505 43.6 30.9948 43.6 27.6C43.6 24.2052 42.2514 20.9495 39.851 18.549C37.4505 16.1486 34.1948 14.8 30.8 14.8C27.4052 14.8 24.1495 16.1486 21.749 18.549C19.3486 20.9495 18 24.2052 18 27.6C18 30.9948 19.3486 34.2505 21.749 36.651C24.1495 39.0514 27.4052 40.4 30.8 40.4ZM50 14.8C51.6974 14.8 53.3253 14.1257 54.5255 12.9255C55.7257 11.7253 56.4 10.0974 56.4 8.4C56.4 6.70261 55.7257 5.07475 54.5255 3.87452C53.3253 2.67428 51.6974 2 50 2C48.3026 2 46.6748 2.67428 45.4745 3.87452C44.2743 5.07475 43.6 6.70261 43.6 8.4C43.6 10.0974 44.2743 11.7253 45.4745 12.9255C46.6748 14.1257 48.3026 14.8 50 14.8Z" stroke="black" stroke-width="2.1" stroke-linecap="round" stroke-linejoin="round"/>
<path d="M13.1992 13.1992L19.5992 19.5992M43.5992 14.7992L40.3992 17.9992M49.9992 49.1992L40.3992 37.1992M17.9992 45.1992L24.3992 38.7992" stroke="black" stroke-width="2.1" stroke-linecap="round" stroke-linejoin="round"/>
</svg>
