<svg width="188" height="57" viewBox="0 0 188 57" fill="none" xmlns="http://www.w3.org/2000/svg">
<path d="M181.037 0H6.96296C3.11742 0 0 3.18997 0 7.125V49.875C0 53.81 3.11742 57 6.96296 57H181.037C184.883 57 188 53.81 188 49.875V7.125C188 3.18997 184.883 0 181.037 0Z" fill="white"/>
<path d="M61.1538 14.7042C61.1799 15.2309 61.0985 15.7575 60.9146 16.2517C60.7307 16.746 60.4481 17.1976 60.0841 17.5792C59.6762 18.0023 59.1835 18.3345 58.6383 18.5541C58.0931 18.7737 57.5077 18.8757 56.9203 18.8534C56.3293 18.8587 55.7431 18.7458 55.1963 18.5213C54.6495 18.2968 54.153 17.9653 53.7362 17.5462C53.3193 17.1271 52.9905 16.6289 52.7689 16.0809C52.5473 15.5329 52.4376 14.9462 52.446 14.3551C52.4376 13.7641 52.5474 13.1773 52.769 12.6293C52.9906 12.0813 53.3195 11.5831 53.7363 11.1639C54.1531 10.7448 54.6495 10.4132 55.1963 10.1886C55.7431 9.96404 56.3292 9.85099 56.9203 9.85612C57.5281 9.85429 58.1297 9.97716 58.688 10.2171C59.2066 10.4273 59.6682 10.7571 60.0352 11.1794L59.2781 11.937C58.9896 11.5975 58.627 11.3288 58.2182 11.1516C57.8094 10.9744 57.3654 10.8935 56.9203 10.9152C56.4724 10.9129 56.0285 11.001 55.6154 11.1742C55.2023 11.3475 54.8284 11.6024 54.5162 11.9236C54.2039 12.2447 53.9597 12.6257 53.7981 13.0435C53.6365 13.4613 53.5609 13.9074 53.5758 14.3551C53.5651 15.0258 53.7538 15.6844 54.118 16.2477C54.4822 16.8109 55.0054 17.2533 55.6213 17.5188C56.2372 17.7843 56.9181 17.8609 57.5776 17.7389C58.2372 17.6169 58.8456 17.3018 59.3258 16.8335C59.7677 16.3573 60.0239 15.7382 60.0477 15.0889H56.9203V14.0544H61.0935C61.133 14.2688 61.1531 14.4863 61.1538 14.7042Z" fill="#122052"/>
<path d="M67.7701 11.1072H63.8479V13.8377H67.3846V14.8724H63.8479V17.603H67.7701V18.6613H62.7419V10.0488H67.7701V11.1072Z" fill="#122052"/>
<path d="M72.4367 18.6613H71.3293V11.1072H68.9238V10.0488H74.8422V11.1072H72.4367V18.6613Z" fill="#122052"/>
<path d="M79.1244 18.6613V10.0488H80.2304V18.6613H79.1244Z" fill="#122052"/>
<path d="M85.1393 18.6613H84.0319V11.1072H81.6266V10.0488H87.5448V11.1072H85.1393V18.6613Z" fill="#122052"/>
<path d="M98.748 17.5482C97.9097 18.3839 96.7743 18.8533 95.5905 18.8533C94.4068 18.8533 93.2714 18.3839 92.4331 17.5482C92.0184 17.1281 91.6924 16.629 91.4744 16.0804C91.2565 15.5319 91.1511 14.9451 91.1645 14.355C91.1511 13.7648 91.2565 13.1781 91.4744 12.6295C91.6924 12.0809 92.0184 11.5818 92.4331 11.1618C92.8474 10.7473 93.3394 10.4186 93.8809 10.1946C94.4225 9.9705 95.0029 9.85544 95.5889 9.85596C96.175 9.85648 96.7551 9.97257 97.2963 10.1976C97.8374 10.4226 98.3288 10.7522 98.7424 11.1673C99.1574 11.5863 99.4841 12.0843 99.703 12.6319C99.9218 13.1794 100.029 13.7654 100.017 14.355C100.03 14.945 99.9241 15.5317 99.7062 16.0802C99.4883 16.6287 99.1624 17.1279 98.748 17.5482ZM93.2503 16.827C93.8711 17.4468 94.7126 17.7949 95.5898 17.7949C96.4671 17.7949 97.3085 17.4468 97.9294 16.827C98.2478 16.5011 98.4968 16.114 98.6613 15.6891C98.8259 15.2642 98.9026 14.8103 98.8868 14.355C98.9026 13.8996 98.8259 13.4458 98.6613 13.0209C98.4968 12.596 98.2478 12.2089 97.9294 11.8829C97.3085 11.2631 96.4671 10.915 95.5898 10.915C94.7126 10.915 93.8711 11.2631 93.2503 11.8829C92.9323 12.2091 92.6837 12.5963 92.5194 13.0212C92.3551 13.446 92.2785 13.8997 92.2943 14.355C92.2785 14.8102 92.3551 15.2639 92.5194 15.6888C92.6837 16.1136 92.9323 16.5008 93.2503 16.827Z" fill="#122052"/>
<path d="M101.57 18.6613V10.0488H102.917L107.103 16.7486H107.151L107.103 15.0888V10.0488H108.21V18.6613H107.055L102.676 11.637H102.628L102.676 13.2967V18.6613H101.57Z" fill="#122052"/>
<path d="M90.8916 31.2225C89.6851 31.227 88.507 31.589 87.5061 32.2626C86.5052 32.9362 85.7263 33.8913 85.2677 35.0072C84.8092 36.1232 84.6916 37.35 84.9298 38.5327C85.168 39.7155 85.7512 40.8011 86.606 41.6526C87.4607 42.5041 88.5486 43.0833 89.7322 43.3169C90.9159 43.5506 92.1422 43.4284 93.2564 42.9656C94.3706 42.5028 95.3227 41.7203 95.9925 40.7168C96.6623 39.7133 97.0198 38.5339 97.0198 37.3274C97.0316 36.5205 96.881 35.7194 96.577 34.9718C96.2729 34.2242 95.8216 33.5454 95.2498 32.9759C94.6781 32.4063 93.9976 31.9575 93.2489 31.6563C92.5001 31.3551 91.6985 31.2075 90.8916 31.2225ZM90.8916 41.0275C90.1486 41.0805 89.4068 40.9085 88.7629 40.534C88.119 40.1595 87.6027 39.5999 87.2814 38.9279C86.96 38.2559 86.8484 37.5027 86.9611 36.7664C87.0737 36.0301 87.4055 35.3447 87.9131 34.7996C88.4208 34.2545 89.0808 33.8748 89.8072 33.71C90.5336 33.5452 91.2929 33.603 91.986 33.8757C92.6792 34.1485 93.2741 34.6236 93.6935 35.2393C94.1128 35.8549 94.3371 36.5825 94.3371 37.3274C94.3597 37.798 94.2878 38.2683 94.1259 38.7107C93.9639 39.1532 93.715 39.5587 93.394 39.9035C93.0729 40.2482 92.6861 40.5253 92.2564 40.7183C91.8266 40.9114 91.3626 41.0165 90.8916 41.0275ZM77.523 31.2225C76.3165 31.227 75.1384 31.5889 74.1375 32.2625C73.1365 32.9361 72.3576 33.8912 71.8991 35.0071C71.4405 36.1231 71.3229 37.3499 71.5611 38.5326C71.7992 39.7154 72.3825 40.8011 73.2372 41.6526C74.092 42.5041 75.1798 43.0832 76.3635 43.3169C77.5471 43.5506 78.7734 43.4284 79.8877 42.9656C81.0019 42.5028 81.954 41.7203 82.6238 40.7168C83.2936 39.7134 83.6511 38.5339 83.6511 37.3274C83.6629 36.5205 83.5123 35.7194 83.2083 34.9718C82.9042 34.2243 82.4529 33.5455 81.8812 32.9759C81.3094 32.4063 80.629 31.9576 79.8803 31.6563C79.1315 31.3551 78.3299 31.2076 77.523 31.2225ZM77.523 41.0275C76.78 41.0805 76.0383 40.9085 75.3943 40.534C74.7504 40.1595 74.2342 39.5999 73.9128 38.9279C73.5914 38.2559 73.4798 37.5027 73.5925 36.7664C73.7052 36.0301 74.0369 35.3447 74.5446 34.7996C75.0522 34.2545 75.7122 33.8748 76.4386 33.71C77.1651 33.5452 77.9243 33.603 78.6174 33.8757C79.3106 34.1485 79.9056 34.6236 80.3249 35.2393C80.7443 35.8549 80.9685 36.5825 80.9686 37.3274C80.9911 37.798 80.9193 38.2683 80.7573 38.7108C80.5954 39.1532 80.3465 39.5587 80.0255 39.9035C79.7044 40.2483 79.3176 40.5253 78.8878 40.7184C78.458 40.9114 77.994 41.0165 77.523 41.0275ZM61.6204 33.0957V35.6856H67.818C67.7286 36.9004 67.2315 38.0494 66.4073 38.9463C65.7862 39.5793 65.0393 40.0752 64.2148 40.4018C63.3903 40.7284 62.5065 40.8785 61.6204 40.8424C59.8088 40.8179 58.0798 40.0811 56.8075 38.7914C55.5351 37.5017 54.8218 35.7629 54.8218 33.9512C54.8218 32.1395 55.5351 30.4007 56.8075 29.111C58.0798 27.8213 59.8088 27.0844 61.6204 27.0599C63.3604 27.0372 65.0391 27.702 66.2918 28.9099L68.1186 27.083C67.2639 26.2369 66.2489 25.5699 65.133 25.1211C64.0171 24.6724 62.8229 24.451 61.6204 24.4699C60.3636 24.4516 59.1158 24.6833 57.9495 25.1516C56.7831 25.6198 55.7215 26.3153 54.8263 27.1975C53.9311 28.0798 53.2203 29.1312 52.7351 30.2906C52.2499 31.45 52 32.6943 52 33.9512C52 35.208 52.2499 36.4523 52.7351 37.6118C53.2203 38.7712 53.9311 39.8226 54.8263 40.7048C55.7215 41.5871 56.7831 42.2825 57.9495 42.7508C59.1158 43.2191 60.3636 43.4508 61.6204 43.4325C62.8483 43.4834 64.073 43.2727 65.2133 42.8142C66.3536 42.3557 67.3833 41.6599 68.2342 40.7731C69.7448 39.1242 70.55 36.9495 70.4774 34.7144C70.4833 34.1716 70.4368 33.6295 70.3385 33.0957H61.6204ZM126.656 35.1074C126.29 34.0016 125.591 33.0356 124.656 32.3405C123.721 31.6455 122.595 31.2551 121.43 31.2225C120.646 31.2273 119.87 31.3912 119.151 31.7042C118.432 32.0172 117.784 32.4727 117.245 33.0434C116.707 33.614 116.29 34.2879 116.02 35.0242C115.749 35.7606 115.631 36.5441 115.672 37.3274C115.654 38.1301 115.799 38.9281 116.096 39.6737C116.394 40.4193 116.839 41.0973 117.404 41.6672C117.97 42.2371 118.644 42.6871 119.388 42.9904C120.131 43.2937 120.928 43.4441 121.731 43.4325C122.737 43.4381 123.728 43.1938 124.616 42.7215C125.504 42.2493 126.261 41.5639 126.818 40.7269L124.737 39.3394C124.425 39.8572 123.984 40.2851 123.457 40.581C122.93 40.877 122.335 41.0308 121.731 41.0275C121.109 41.0513 120.494 40.8876 119.966 40.5577C119.438 40.2279 119.022 39.747 118.771 39.1775L126.934 35.8013L126.656 35.1074ZM118.331 37.1425C118.303 36.6982 118.363 36.2526 118.508 35.8318C118.654 35.411 118.882 35.0234 119.179 34.6918C119.476 34.3602 119.837 34.0911 120.239 33.9005C120.641 33.7098 121.078 33.6013 121.523 33.5813C121.986 33.5508 122.448 33.6574 122.851 33.8877C123.254 34.1179 123.58 34.4618 123.789 34.8763L118.331 37.1425ZM111.694 43.0625H114.377V25.1175H111.694V43.0625ZM107.301 32.5868H107.208C106.8 32.1437 106.303 31.7928 105.748 31.5575C105.194 31.3222 104.596 31.208 103.994 31.2225C102.42 31.2895 100.932 31.962 99.8418 33.0995C98.7516 34.2371 98.143 35.7519 98.143 37.3275C98.143 38.9031 98.7516 40.4179 99.8418 41.5554C100.932 42.693 102.42 43.3655 103.994 43.4325C104.598 43.4486 105.199 43.3328 105.754 43.0932C106.309 42.8536 106.805 42.4959 107.208 42.045H107.301V42.9238C107.301 45.2595 106.052 46.5082 104.04 46.5082C103.369 46.4921 102.719 46.2768 102.171 45.8897C101.623 45.5025 101.203 44.9611 100.964 44.3344L98.6287 45.3057C99.0689 46.3775 99.8191 47.2934 100.783 47.9361C101.747 48.5788 102.881 48.9191 104.04 48.9132C107.185 48.9132 109.844 47.0632 109.844 42.5537V31.5924H107.301V32.5868ZM104.225 41.0275C103.298 40.9489 102.434 40.525 101.804 39.8398C101.175 39.1546 100.826 38.258 100.826 37.3275C100.826 36.397 101.175 35.5004 101.804 34.8152C102.434 34.13 103.298 33.7061 104.225 33.6275C104.686 33.65 105.138 33.7652 105.554 33.9661C105.97 34.1671 106.341 34.4497 106.645 34.7971C106.95 35.1445 107.181 35.5497 107.325 35.9884C107.47 36.427 107.524 36.8903 107.486 37.3505C107.522 37.8079 107.465 38.2678 107.319 38.7028C107.174 39.1378 106.942 39.539 106.637 39.8822C106.333 40.2255 105.962 40.5039 105.548 40.7006C105.133 40.8974 104.683 41.0086 104.225 41.0275ZM139.222 25.1178H132.804V43.0625H135.482V36.2638H139.222C139.979 36.3053 140.737 36.192 141.45 35.9306C142.162 35.6693 142.813 35.2656 143.364 34.744C143.915 34.2224 144.354 33.594 144.654 32.8971C144.954 32.2002 145.109 31.4495 145.109 30.6908C145.109 29.9321 144.954 29.1814 144.654 28.4845C144.354 27.7876 143.915 27.1592 143.364 26.6376C142.813 26.116 142.162 25.7122 141.45 25.4509C140.737 25.1896 139.979 25.0763 139.222 25.1178ZM139.291 33.7664H135.482V27.6153H139.291C139.7 27.6068 140.107 27.6801 140.488 27.8308C140.868 27.9816 141.215 28.2068 141.507 28.4932C141.8 28.7796 142.032 29.1216 142.191 29.4989C142.349 29.8763 142.431 30.2815 142.431 30.6909C142.431 31.1002 142.349 31.5054 142.191 31.8828C142.032 32.2602 141.8 32.6021 141.507 32.8885C141.215 33.1749 140.868 33.4001 140.488 33.5509C140.107 33.7016 139.7 33.7749 139.291 33.7664ZM155.844 31.1895C154.866 31.1324 153.893 31.3619 153.044 31.85C152.195 32.338 151.507 33.0632 151.065 33.9367L153.443 34.9294C153.679 34.4959 154.036 34.1405 154.47 33.9068C154.905 33.673 155.398 33.5711 155.89 33.6134C156.569 33.5471 157.247 33.7529 157.775 34.1856C158.303 34.6184 158.638 35.2428 158.706 35.922V36.1067C157.846 35.6498 156.887 35.4119 155.913 35.4142C153.35 35.4142 150.742 36.8224 150.742 39.4543C150.767 40.0089 150.903 40.5529 151.142 41.054C151.381 41.5551 151.718 42.003 152.134 42.3712C152.549 42.7394 153.035 43.0203 153.561 43.1974C154.087 43.3745 154.644 43.444 155.197 43.4019C155.872 43.4416 156.544 43.2998 157.145 42.9912C157.746 42.6827 158.253 42.2186 158.614 41.6474H158.706V43.0326H161.292V36.153C161.292 32.9671 158.914 31.1895 155.844 31.1895ZM155.521 41.024C154.643 41.024 153.42 40.5855 153.42 39.5003C153.42 38.1153 154.943 37.5842 156.259 37.5842C157.114 37.5614 157.959 37.7688 158.706 38.1845C158.608 38.9628 158.231 39.6792 157.646 40.2012C157.06 40.7232 156.305 41.0155 155.521 41.024ZM170.711 31.5819L167.641 39.3618H167.548L164.363 31.5819H161.477L166.256 42.4554L163.531 48.504H166.325L173.689 31.5819H170.711ZM146.586 43.0625H149.264V25.1178H146.586V43.0625Z" fill="#122052"/>
<g clip-path="url(#clip0_92_900)">
<path d="M30.5942 28.6122L34.8568 24.4024L18.8335 15.2508C18.5637 15.0953 18.2588 15.0093 17.9467 15.0007C17.6346 14.9921 17.3253 15.0612 17.0471 15.2016L30.5942 28.6122Z" fill="#122052"/>
<path d="M16.5855 42.4798L30.2318 28.971L16.6153 15.4917C16.4201 15.6658 16.2644 15.8787 16.1583 16.1167C16.0523 16.3546 15.9983 16.612 16 16.872V41.1289C15.9987 41.3818 16.05 41.6322 16.1507 41.8647C16.2515 42.0971 16.3995 42.3064 16.5855 42.4798V42.4798Z" fill="#122052"/>
<path d="M30.594 29.3345L16.9924 42.7843C17.2736 42.9331 17.5887 43.0081 17.9075 43.002C18.2263 42.996 18.5382 42.9092 18.8135 42.7499L34.8566 33.5787L30.594 29.3345Z" fill="#122052"/>
<path d="M40.057 27.3791L35.313 24.6675L30.9661 28.9706L35.3527 33.3131L40.0619 30.6212C40.3492 30.4565 40.5876 30.2199 40.7532 29.9351C40.9188 29.6502 41.0057 29.3273 41.0052 28.9987C41.0047 28.6701 40.9168 28.3474 40.7503 28.0631C40.5839 27.7788 40.3447 27.5429 40.057 27.3791V27.3791Z" fill="#122052"/>
</g>
<defs>
<clipPath id="clip0_92_900">
<rect width="25" height="28" fill="white" transform="translate(16 15)"/>
</clipPath>
</defs>
</svg>
